<svg xmlns="http://www.w3.org/2000/svg" xmlns:xlink="http://www.w3.org/1999/xlink" version="1.1" width="256" height="256" viewBox="0 0 256 256" xml:space="preserve">

<defs>
</defs>
<g style="stroke: none; stroke-width: 0; stroke-dasharray: none; stroke-linecap: butt; stroke-linejoin: miter; stroke-miterlimit: 10; fill: none; fill-rule: nonzero; opacity: 1;" transform="translate(1.4065934065934016 1.4065934065934016) scale(2.81 2.81)" >
	<path d="M 77.474 17.28 L 61.526 1.332 C 60.668 0.473 59.525 0 58.311 0 H 15.742 c -2.508 0 -4.548 2.04 -4.548 4.548 v 80.904 c 0 2.508 2.04 4.548 4.548 4.548 h 58.516 c 2.508 0 4.549 -2.04 4.549 -4.548 V 20.496 C 78.807 19.281 78.333 18.138 77.474 17.28 z M 61.073 5.121 l 12.611 12.612 H 62.35 c -0.704 0 -1.276 -0.573 -1.276 -1.277 V 5.121 z M 74.258 87 H 15.742 c -0.854 0 -1.548 -0.694 -1.548 -1.548 V 4.548 C 14.194 3.694 14.888 3 15.742 3 h 42.332 v 13.456 c 0 2.358 1.918 4.277 4.276 4.277 h 13.457 v 64.719 C 75.807 86.306 75.112 87 74.258 87 z" style="stroke: currentColor; stroke-width: 1; stroke-dasharray: none; stroke-linecap: butt; stroke-linejoin: miter; stroke-miterlimit: 10; fill-rule: nonzero; opacity: 1;" transform=" matrix(1 0 0 1 0 0) " stroke-linecap="round" />
	<path d="M 63.797 67.222 H 26.203 c -2.644 0 -4.801 -2.248 -4.809 -5.012 c 0 -7.294 5.462 -13.193 12.175 -13.193 c 0.346 0 0.695 0.018 1.052 0.054 c 2.206 -3.908 6.092 -6.292 10.379 -6.292 c 4.287 0 8.173 2.383 10.379 6.291 c 0.355 -0.035 0.705 -0.053 1.053 -0.053 c 6.713 0 12.175 5.899 12.175 13.151 C 68.599 64.974 66.44 67.222 63.797 67.222 z M 33.569 52.017 c -5.059 0 -9.175 4.554 -9.175 10.151 c 0.003 1.147 0.815 2.054 1.809 2.054 h 37.594 c 0.994 0 1.807 -0.906 1.81 -2.021 c 0 -5.63 -4.116 -10.184 -9.175 -10.184 c -0.513 0 -1.038 0.055 -1.608 0.166 c -0.678 0.14 -1.362 -0.215 -1.651 -0.844 c -1.579 -3.43 -4.711 -5.56 -8.172 -5.56 c -3.461 0 -6.593 2.13 -8.172 5.56 c -0.289 0.628 -0.97 0.978 -1.649 0.845 C 34.603 52.071 34.076 52.017 33.569 52.017 z" style="stroke: currentColor; stroke-width: 1; stroke-dasharray: none; stroke-linecap: butt; stroke-linejoin: miter; stroke-miterlimit: 10; opacity: 1;" transform=" matrix(1 0 0 1 0 0) " stroke-linecap="round" />
</g>
</svg>