<?xml version="1.0" encoding="utf-8"?>
<!-- Generator: Adobe Illustrator 28.0.0, SVG Export Plug-In . SVG Version: 6.00 Build 0)  -->
<svg version="1.1" xmlns="http://www.w3.org/2000/svg" xmlns:xlink="http://www.w3.org/1999/xlink" x="0px" y="0px"
	 viewBox="0 0 32 32" enable-background="new 0 0 32 32" xml:space="preserve">
<g id="Layer_2">
	<path fill="none" stroke="#000000" stroke-linecap="round" stroke-linejoin="round" stroke-miterlimit="10" d="M16.09,6
		c1.9,0,1.15,0,1.91,0c0.62,0,1.38-1,2-1c1,0,2.5,0,3,0c0.36,0,1.06-0.04,2.09,1c2.94,2.96,4.86,9.5,5,10c1.1,3.84,1.22,5.41,1,7
		c-0.15,1.1-0.46,3.34-2,4c-0.94,0.4-1.91,0.03-2,0c-1.09-0.43-1.18-1.33-3-4c-0.93-1.36-1.36-1.79-2-2c-0.27-0.09-0.24-0.02-2,0
		c-1,0.01-2,0-3,0c-0.33,0-0.67,0-1,0 M16.09,6c-1.9,0-1.33,0-2.09,0c-0.62,0-1.38-1-2-1c-1,0-2.41,0-2.91,0c-0.36,0-0.97-0.04-2,1
		c-2.94,2.96-4.86,9.5-5,10c-1.1,3.84-1.22,5.41-1,7c0.15,1.1,0.46,3.34,2,4c0.94,0.4,1.91,0.03,2,0c1.09-0.43,1.18-1.33,3-4
		c0.93-1.36,1.36-1.79,2-2c0.27-0.09,0.24-0.02,2,0c1,0.01,2,0,3,0c0.33,0,0.67,0,1,0"/>
</g>
<g id="Layer_3">
		<circle fill="none" stroke="#000000" stroke-width="1" stroke-linecap="round" stroke-linejoin="round" stroke-miterlimit="10" cx="10" cy="12" r="2"/>
	
		<circle fill="none" stroke="#000000" stroke-width="1" stroke-linecap="round" stroke-linejoin="round" stroke-miterlimit="10" cx="22" cy="14" r="2"/>
</g>
</svg>
