<?xml version="1.0" encoding="UTF-8"?>
<svg xmlns="http://www.w3.org/2000/svg"
     xmlns:xlink="http://www.w3.org/1999/xlink" width="32px" height="32px"
     viewBox="0 0 32 32" version="1.1" style="fill:none;stroke-width:30;stroke:currentColor;">
    <path 
          d="M 564.990669 300.000231 C 564.990669 446.411476 446.411476 564.990669 300.000231 564.990669 C 153.588985 564.990669 35.009793 446.411476 35.009793 300.000231 C 35.009793 153.588985 153.588985 35.009793 300.000231 35.009793 C 446.411476 35.009793 564.990669 153.588985 564.990669 300.000231"
          transform="matrix(0.0533333,0,0,0.0533333,0,0)"/>
    <path 
          d="M 414.990554 229.980646 C 414.990554 293.481671 363.574498 344.970968 300.000231 344.970968 C 236.425963 344.970968 185.009908 293.481671 185.009908 229.980646 C 185.009908 166.47962 236.425963 114.990323 300.000231 114.990323 C 363.574498 114.990323 414.990554 166.47962 414.990554 229.980646"
          transform="matrix(0.0533333,0,0,0.0533333,0,0)"/>
    <path 
          d="M 106.787192 481.348027 C 135.864362 399.609682 213.208172 344.970968 300.000231 344.970968 C 386.79229 344.970968 464.136099 399.609682 493.21327 481.348027 "
          transform="matrix(0.0533333,0,0,0.0533333,0,0)"/>
</svg>
