<?xml version="1.0" encoding="utf-8"?>
<!-- Generator: Adobe Illustrator 28.0.0, SVG Export Plug-In . SVG Version: 6.00 Build 0)  -->
<svg version="1.1" id="Layer_1" xmlns="http://www.w3.org/2000/svg" xmlns:xlink="http://www.w3.org/1999/xlink" x="0px" y="0px"
	 viewBox="0 0 200.69 200.69" xml:space="preserve">
<path fill="none" stroke-width="6"  stroke="currentColor" stroke-miterlimit="10" d="M190.99,111.64l-0.3-0.34c-1.4-1.73-4.46-4.19-8.92-5.89l-0.68-0.21
	c-4.65-2.15-8.86-3.58-10.1-3.99c-0.97-0.32-1.78-0.67-2.43-0.95c-5.13-2.53-5.71-4.01-5.79-4.23l-0.23-0.55l0.19-0.49
	c3.81-4.74,6.49-10.27,7.51-15.48l0.15-0.36c1.05-1.34,1.73-2.91,1.99-4.64c1.22-4.38,1.27-7.6,0.18-9.86l-0.1-0.2l0.05-0.22
	c1.36-5.67,2.66-16.28-3.84-23.68c-1.04-1.3-5.03-5.71-12.76-7.97l-3.78-1.29c-6.18-1.91-10.09-2.37-10.74-2.38
	c-0.41,0-0.78,0.05-1.31,0.17l-0.47,0.09c-0.27-0.04-0.55-0.06-0.87-0.06c-2.07,0-4.31,0.91-4.31,0.91
	c-2.18,0.91-13.25,6.02-16.76,16.87c-0.58,1.54-1.77,6.23-0.23,16.49l0.04,0.25l-0.16,0.22c-1.58,2.12-1.71,5.57-0.4,10.2
	c0.34,2.05,1.01,3.69,2,4.92l0.16,0.35c0.97,5.37,3.36,10.67,6.91,15.32l0.28,0.37L126,95.39c-0.15,0.23-0.26,0.46-0.3,0.64
	c-0.54,1.55-4.7,4.01-11.16,6.59c-1.44-0.52-2.44-0.85-2.8-0.97c-1.3-0.43-2.39-0.9-3.28-1.29c-6.82-3.37-7.72-5.33-7.86-5.78
	l-0.36-0.8l0.32-0.74c5.12-6.38,8.71-13.81,10.1-20.84l0.21-0.49c1.41-1.8,2.32-3.9,2.66-6.2c1.63-5.86,1.71-10.18,0.25-13.19
	L113.62,52l0.08-0.34c1.82-7.61,3.57-21.85-5.16-31.76c-1.38-1.74-6.7-7.64-17.1-10.69l-5.07-1.74C77.89,4.86,72.63,4.3,71.95,4.29
	c-0.56,0-1.05,0.06-1.75,0.23l-0.68,0.11c-2.81-0.46-6.27,0.88-6.9,1.12c-2.92,1.23-17.77,8.1-22.47,22.65
	c-0.79,2.06-2.37,8.34-0.31,22.11l0.06,0.42l-0.26,0.34c-2.1,2.81-2.26,7.41-0.5,13.62c0.45,2.73,1.35,4.92,2.68,6.59l0.23,0.49
	c1.28,7.21,4.49,14.32,9.26,20.59l0.45,0.59l-0.42,0.61c-0.21,0.31-0.35,0.62-0.38,0.81c-1.19,3.38-14.4,9.28-25.97,12.81
	c-8.33,3.16-11.99,8.27-12.01,8.3C1.5,132.72,0.87,169.77,0.82,171.34c0.18,9.52,3.68,10.97,4.51,11.25l0.73,0.32
	c25.38,11.07,62.46,13.23,66.61,13.44l1.29,0.04c1.24,0,2.5-0.07,3.68-0.13h0.1l0.38,0.02c0.31,0.08,0.56,0.12,0.82,0.12l0.18-0.01
	c1.68-0.08,41.48-2.35,66.33-13.49c1.35-0.36,5.73-2.24,6.13-11.49c8.85-0.77,30.04-3.21,44.44-9.66c1.06-0.28,4.55-1.76,4.67-9.27
	C200.53,149.59,199.14,123.78,190.99,111.64z M151.39,167.02c-0.78-11.22-3.55-37.64-12.79-51.37l-0.39-0.47
	c-1.87-2.31-5.97-5.6-11.94-7.88l-0.94-0.28c-1.62-0.7-3.25-1.41-4.87-2.11 M126.27,95.01l3.14,3.55l0.42,0.41
	c4.55,4.27,9.57,6.62,14.15,6.62c4.81,0,9.78-2.09,14.35-6.03"/>
<path fill="none" stroke-width="6" stroke="currentColor" stroke-miterlimit="10" d="M51.76,93.15l2.45,2.8c1.11,1.87,5.49,8.01,13.66,10.31
	c8.44,2.37,15.47-0.88,18.58-2.32c6.05-2.8,11.02-7.31,12.9-9.68l1.21-1.22"/>
</svg>
