<?xml version="1.0" encoding="UTF-8" standalone="no"?>
<!DOCTYPE svg PUBLIC "-//W3C//DTD SVG 1.1//EN"
 "http://www.w3.org/Graphics/SVG/1.1/DTD/svg11.dtd">
<!-- Generated by graphviz version 9.0.0 (20230911.1827)
 -->
<!-- Title: G Pages: 1 -->
<svg width="1128pt" height="566pt"
 viewBox="0.00 0.00 1128.45 565.50" xmlns="http://www.w3.org/2000/svg" xmlns:xlink="http://www.w3.org/1999/xlink">
<g id="graph0" class="graph" transform="scale(1 1) rotate(0) translate(21.6 543.9)">
<title>G</title>
<polygon fill="#111111" stroke="none" points="-21.6,21.6 -21.6,-543.9 1106.85,-543.9 1106.85,21.6 -21.6,21.6"/>
<!-- client/config/routes.tsx -->
<g id="node1" class="node">
<title>client/config/routes.tsx</title>
<path fill="none" stroke="#ff6c60" d="M148.83,-278.02C148.83,-278.02 8.17,-278.02 8.17,-278.02 4.08,-278.02 0,-273.94 0,-269.85 0,-269.85 0,-261.69 0,-261.69 0,-257.6 4.08,-253.52 8.17,-253.52 8.17,-253.52 148.83,-253.52 148.83,-253.52 152.92,-253.52 157,-257.6 157,-261.69 157,-261.69 157,-269.85 157,-269.85 157,-273.94 152.92,-278.02 148.83,-278.02"/>
<text text-anchor="middle" x="78.5" y="-260.72" font-family="Arial" font-size="14.00" fill="#ff6c60">client/config/routes.tsx</text>
</g>
<!-- client/pages/Games/Game/GamePage.tsx -->
<g id="node2" class="node">
<title>client/pages/Games/Game/GamePage.tsx</title>
<path fill="none" stroke="#ff6c60" d="M559.71,-515.02C559.71,-515.02 292.29,-515.02 292.29,-515.02 288.21,-515.02 284.12,-510.94 284.12,-506.85 284.12,-506.85 284.12,-498.69 284.12,-498.69 284.12,-494.6 288.21,-490.52 292.29,-490.52 292.29,-490.52 559.71,-490.52 559.71,-490.52 563.79,-490.52 567.88,-494.6 567.88,-498.69 567.88,-498.69 567.88,-506.85 567.88,-506.85 567.88,-510.94 563.79,-515.02 559.71,-515.02"/>
<text text-anchor="middle" x="426" y="-497.72" font-family="Arial" font-size="14.00" fill="#ff6c60">client/pages/Games/Game/GamePage.tsx</text>
</g>
<!-- client/config/routes.tsx&#45;&gt;client/pages/Games/Game/GamePage.tsx -->
<g id="edge1" class="edge">
<title>client/config/routes.tsx&#45;&gt;client/pages/Games/Game/GamePage.tsx</title>
<path fill="none" stroke="#757575" d="M82.79,-278.4C91.86,-315.79 121.44,-423.88 193,-471.77 216.45,-487.46 244.34,-496.24 272.51,-500.88"/>
<polygon fill="#757575" stroke="#757575" points="271.84,-504.32 282.24,-502.3 272.85,-497.39 271.84,-504.32"/>
</g>
<!-- client/pages/Games/GameAdd/GameAddPage.tsx -->
<g id="node3" class="node">
<title>client/pages/Games/GameAdd/GameAddPage.tsx</title>
<path fill="none" stroke="#ff6c60" d="M585.96,-472.02C585.96,-472.02 266.04,-472.02 266.04,-472.02 261.96,-472.02 257.88,-467.94 257.88,-463.85 257.88,-463.85 257.88,-455.69 257.88,-455.69 257.88,-451.6 261.96,-447.52 266.04,-447.52 266.04,-447.52 585.96,-447.52 585.96,-447.52 590.04,-447.52 594.12,-451.6 594.12,-455.69 594.12,-455.69 594.12,-463.85 594.12,-463.85 594.12,-467.94 590.04,-472.02 585.96,-472.02"/>
<text text-anchor="middle" x="426" y="-454.72" font-family="Arial" font-size="14.00" fill="#ff6c60">client/pages/Games/GameAdd/GameAddPage.tsx</text>
</g>
<!-- client/config/routes.tsx&#45;&gt;client/pages/Games/GameAdd/GameAddPage.tsx -->
<g id="edge2" class="edge">
<title>client/config/routes.tsx&#45;&gt;client/pages/Games/GameAdd/GameAddPage.tsx</title>
<path fill="none" stroke="#757575" d="M85.18,-278.28C97.94,-310.18 132.59,-392.47 193,-428.77 209.38,-438.61 227.61,-445.57 246.46,-450.43"/>
<polygon fill="#757575" stroke="#757575" points="245.6,-453.82 256.14,-452.71 247.21,-447.01 245.6,-453.82"/>
</g>
<!-- client/pages/Games/GamesPage.tsx -->
<g id="node4" class="node">
<title>client/pages/Games/GamesPage.tsx</title>
<path fill="none" stroke="#ff6c60" d="M542.08,-429.02C542.08,-429.02 309.92,-429.02 309.92,-429.02 305.83,-429.02 301.75,-424.94 301.75,-420.85 301.75,-420.85 301.75,-412.69 301.75,-412.69 301.75,-408.6 305.83,-404.52 309.92,-404.52 309.92,-404.52 542.08,-404.52 542.08,-404.52 546.17,-404.52 550.25,-408.6 550.25,-412.69 550.25,-412.69 550.25,-420.85 550.25,-420.85 550.25,-424.94 546.17,-429.02 542.08,-429.02"/>
<text text-anchor="middle" x="426" y="-411.72" font-family="Arial" font-size="14.00" fill="#ff6c60">client/pages/Games/GamesPage.tsx</text>
</g>
<!-- client/config/routes.tsx&#45;&gt;client/pages/Games/GamesPage.tsx -->
<g id="edge3" class="edge">
<title>client/config/routes.tsx&#45;&gt;client/pages/Games/GamesPage.tsx</title>
<path fill="none" stroke="#757575" d="M89.23,-278.22C106.06,-303.88 143.58,-360.55 193,-385.77 222.54,-400.85 256.96,-408.52 290.09,-412.29"/>
<polygon fill="#757575" stroke="#757575" points="289.47,-415.74 299.77,-413.27 290.17,-408.78 289.47,-415.74"/>
</g>
<!-- client/pages/Login/LoginPage.tsx -->
<g id="node5" class="node">
<title>client/pages/Login/LoginPage.tsx</title>
<path fill="none" stroke="#ff6c60" d="M530.83,-386.02C530.83,-386.02 321.17,-386.02 321.17,-386.02 317.08,-386.02 313,-381.94 313,-377.85 313,-377.85 313,-369.69 313,-369.69 313,-365.6 317.08,-361.52 321.17,-361.52 321.17,-361.52 530.83,-361.52 530.83,-361.52 534.92,-361.52 539,-365.6 539,-369.69 539,-369.69 539,-377.85 539,-377.85 539,-381.94 534.92,-386.02 530.83,-386.02"/>
<text text-anchor="middle" x="426" y="-368.72" font-family="Arial" font-size="14.00" fill="#ff6c60">client/pages/Login/LoginPage.tsx</text>
</g>
<!-- client/config/routes.tsx&#45;&gt;client/pages/Login/LoginPage.tsx -->
<g id="edge4" class="edge">
<title>client/config/routes.tsx&#45;&gt;client/pages/Login/LoginPage.tsx</title>
<path fill="none" stroke="#757575" d="M97.92,-278.44C118.83,-296.52 154.99,-327.96 193,-342.77 226.91,-355.98 265.63,-362.62 301.59,-366.07"/>
<polygon fill="#757575" stroke="#757575" points="300.88,-369.52 311.15,-366.91 301.5,-362.55 300.88,-369.52"/>
</g>
<!-- client/pages/MySaves/MySave/MySavePage.tsx -->
<g id="node6" class="node">
<title>client/pages/MySaves/MySave/MySavePage.tsx</title>
<path fill="none" stroke="#ff6c60" d="M576.58,-343.02C576.58,-343.02 275.42,-343.02 275.42,-343.02 271.33,-343.02 267.25,-338.94 267.25,-334.85 267.25,-334.85 267.25,-326.69 267.25,-326.69 267.25,-322.6 271.33,-318.52 275.42,-318.52 275.42,-318.52 576.58,-318.52 576.58,-318.52 580.67,-318.52 584.75,-322.6 584.75,-326.69 584.75,-326.69 584.75,-334.85 584.75,-334.85 584.75,-338.94 580.67,-343.02 576.58,-343.02"/>
<text text-anchor="middle" x="426" y="-325.72" font-family="Arial" font-size="14.00" fill="#ff6c60">client/pages/MySaves/MySave/MySavePage.tsx</text>
</g>
<!-- client/config/routes.tsx&#45;&gt;client/pages/MySaves/MySave/MySavePage.tsx -->
<g id="edge5" class="edge">
<title>client/config/routes.tsx&#45;&gt;client/pages/MySaves/MySave/MySavePage.tsx</title>
<path fill="none" stroke="#757575" d="M126.39,-278.47C146.51,-285.92 170.53,-294.55 193,-299.77 228.98,-308.13 268.81,-313.33 305.16,-316.96"/>
<polygon fill="#757575" stroke="#757575" points="304.53,-320.41 314.82,-317.89 305.2,-313.45 304.53,-320.41"/>
</g>
<!-- client/pages/MySaves/MySavesPage.tsx -->
<g id="node7" class="node">
<title>client/pages/MySaves/MySavesPage.tsx</title>
<path fill="none" stroke="#ff6c60" d="M553.33,-300.02C553.33,-300.02 298.67,-300.02 298.67,-300.02 294.58,-300.02 290.5,-295.94 290.5,-291.85 290.5,-291.85 290.5,-283.69 290.5,-283.69 290.5,-279.6 294.58,-275.52 298.67,-275.52 298.67,-275.52 553.33,-275.52 553.33,-275.52 557.42,-275.52 561.5,-279.6 561.5,-283.69 561.5,-283.69 561.5,-291.85 561.5,-291.85 561.5,-295.94 557.42,-300.02 553.33,-300.02"/>
<text text-anchor="middle" x="426" y="-282.72" font-family="Arial" font-size="14.00" fill="#ff6c60">client/pages/MySaves/MySavesPage.tsx</text>
</g>
<!-- client/config/routes.tsx&#45;&gt;client/pages/MySaves/MySavesPage.tsx -->
<g id="edge6" class="edge">
<title>client/config/routes.tsx&#45;&gt;client/pages/MySaves/MySavesPage.tsx</title>
<path fill="none" stroke="#757575" d="M157.47,-270.73C193.38,-273.02 237.22,-275.81 278.92,-278.47"/>
<polygon fill="#757575" stroke="#757575" points="278.62,-281.95 288.82,-279.1 279.06,-274.97 278.62,-281.95"/>
</g>
<!-- client/pages/PublicSaves/PublicSavesPage.tsx -->
<g id="node8" class="node">
<title>client/pages/PublicSaves/PublicSavesPage.tsx</title>
<path fill="none" stroke="#ff6c60" d="M574.33,-257.02C574.33,-257.02 277.67,-257.02 277.67,-257.02 273.58,-257.02 269.5,-252.94 269.5,-248.85 269.5,-248.85 269.5,-240.69 269.5,-240.69 269.5,-236.6 273.58,-232.52 277.67,-232.52 277.67,-232.52 574.33,-232.52 574.33,-232.52 578.42,-232.52 582.5,-236.6 582.5,-240.69 582.5,-240.69 582.5,-248.85 582.5,-248.85 582.5,-252.94 578.42,-257.02 574.33,-257.02"/>
<text text-anchor="middle" x="426" y="-239.72" font-family="Arial" font-size="14.00" fill="#ff6c60">client/pages/PublicSaves/PublicSavesPage.tsx</text>
</g>
<!-- client/config/routes.tsx&#45;&gt;client/pages/PublicSaves/PublicSavesPage.tsx -->
<g id="edge7" class="edge">
<title>client/config/routes.tsx&#45;&gt;client/pages/PublicSaves/PublicSavesPage.tsx</title>
<path fill="none" stroke="#757575" d="M157.47,-255.28C187.37,-252.76 222.76,-250.27 257.84,-248.18"/>
<polygon fill="#757575" stroke="#757575" points="257.92,-251.68 267.7,-247.6 257.51,-244.7 257.92,-251.68"/>
</g>
<!-- client/pages/Register/RegisterPage.tsx -->
<g id="node9" class="node">
<title>client/pages/Register/RegisterPage.tsx</title>
<path fill="none" stroke="#ff6c60" d="M549.58,-214.02C549.58,-214.02 302.42,-214.02 302.42,-214.02 298.33,-214.02 294.25,-209.94 294.25,-205.85 294.25,-205.85 294.25,-197.69 294.25,-197.69 294.25,-193.6 298.33,-189.52 302.42,-189.52 302.42,-189.52 549.58,-189.52 549.58,-189.52 553.67,-189.52 557.75,-193.6 557.75,-197.69 557.75,-197.69 557.75,-205.85 557.75,-205.85 557.75,-209.94 553.67,-214.02 549.58,-214.02"/>
<text text-anchor="middle" x="426" y="-196.72" font-family="Arial" font-size="14.00" fill="#ff6c60">client/pages/Register/RegisterPage.tsx</text>
</g>
<!-- client/config/routes.tsx&#45;&gt;client/pages/Register/RegisterPage.tsx -->
<g id="edge8" class="edge">
<title>client/config/routes.tsx&#45;&gt;client/pages/Register/RegisterPage.tsx</title>
<path fill="none" stroke="#757575" d="M93.82,-253.22C115,-240.53 156.13,-223.19 193,-214.77 221.68,-208.22 252.78,-203.62 282.62,-200.59"/>
<polygon fill="#757575" stroke="#757575" points="282.86,-204.08 292.48,-199.65 282.19,-197.11 282.86,-204.08"/>
</g>
<!-- client/pages/RequestResetPassword/RequestPasswordResetPage.tsx -->
<g id="node10" class="node">
<title>client/pages/RequestResetPassword/RequestPasswordResetPage.tsx</title>
<path fill="none" stroke="#ff6c60" d="M650.83,-171.02C650.83,-171.02 201.17,-171.02 201.17,-171.02 197.08,-171.02 193,-166.94 193,-162.85 193,-162.85 193,-154.69 193,-154.69 193,-150.6 197.08,-146.52 201.17,-146.52 201.17,-146.52 650.83,-146.52 650.83,-146.52 654.92,-146.52 659,-150.6 659,-154.69 659,-154.69 659,-162.85 659,-162.85 659,-166.94 654.92,-171.02 650.83,-171.02"/>
<text text-anchor="middle" x="426" y="-153.72" font-family="Arial" font-size="14.00" fill="#ff6c60">client/pages/RequestResetPassword/RequestPasswordResetPage.tsx</text>
</g>
<!-- client/config/routes.tsx&#45;&gt;client/pages/RequestResetPassword/RequestPasswordResetPage.tsx -->
<g id="edge9" class="edge">
<title>client/config/routes.tsx&#45;&gt;client/pages/RequestResetPassword/RequestPasswordResetPage.tsx</title>
<path fill="none" stroke="#757575" d="M86.82,-253.18C102.38,-233.03 140.77,-195.62 183.5,-175.84"/>
<polygon fill="#757575" stroke="#757575" points="184.62,-179.17 192.46,-172.03 181.88,-172.72 184.62,-179.17"/>
</g>
<!-- client/pages/ResetPassword/ResetPasswordPage.tsx -->
<g id="node11" class="node">
<title>client/pages/ResetPassword/ResetPasswordPage.tsx</title>
<path fill="none" stroke="#ff6c60" d="M596.83,-128.02C596.83,-128.02 255.17,-128.02 255.17,-128.02 251.08,-128.02 247,-123.94 247,-119.85 247,-119.85 247,-111.69 247,-111.69 247,-107.6 251.08,-103.52 255.17,-103.52 255.17,-103.52 596.83,-103.52 596.83,-103.52 600.92,-103.52 605,-107.6 605,-111.69 605,-111.69 605,-119.85 605,-119.85 605,-123.94 600.92,-128.02 596.83,-128.02"/>
<text text-anchor="middle" x="426" y="-110.72" font-family="Arial" font-size="14.00" fill="#ff6c60">client/pages/ResetPassword/ResetPasswordPage.tsx</text>
</g>
<!-- client/config/routes.tsx&#45;&gt;client/pages/ResetPassword/ResetPasswordPage.tsx -->
<g id="edge10" class="edge">
<title>client/config/routes.tsx&#45;&gt;client/pages/ResetPassword/ResetPasswordPage.tsx</title>
<path fill="none" stroke="#757575" d="M83.98,-253.15C97.03,-224.4 137.66,-156.88 193,-128.77 244.6,-102.56 310.96,-98.77 359.48,-102.1"/>
<polygon fill="#757575" stroke="#757575" points="359.03,-105.58 369.28,-102.91 359.6,-98.6 359.03,-105.58"/>
</g>
<!-- client/pages/SharedSaves/SharedSavesPage.tsx -->
<g id="node12" class="node">
<title>client/pages/SharedSaves/SharedSavesPage.tsx</title>
<path fill="none" stroke="#ff6c60" d="M581.08,-85.02C581.08,-85.02 270.92,-85.02 270.92,-85.02 266.83,-85.02 262.75,-80.94 262.75,-76.85 262.75,-76.85 262.75,-68.69 262.75,-68.69 262.75,-64.6 266.83,-60.52 270.92,-60.52 270.92,-60.52 581.08,-60.52 581.08,-60.52 585.17,-60.52 589.25,-64.6 589.25,-68.69 589.25,-68.69 589.25,-76.85 589.25,-76.85 589.25,-80.94 585.17,-85.02 581.08,-85.02"/>
<text text-anchor="middle" x="426" y="-67.72" font-family="Arial" font-size="14.00" fill="#ff6c60">client/pages/SharedSaves/SharedSavesPage.tsx</text>
</g>
<!-- client/config/routes.tsx&#45;&gt;client/pages/SharedSaves/SharedSavesPage.tsx -->
<g id="edge11" class="edge">
<title>client/config/routes.tsx&#45;&gt;client/pages/SharedSaves/SharedSavesPage.tsx</title>
<path fill="none" stroke="#757575" d="M82.24,-253.38C91.89,-218.99 127.28,-125.13 193,-85.77 247.42,-53.17 322.2,-52.25 371.99,-58.5"/>
<polygon fill="#757575" stroke="#757575" points="371.26,-61.93 381.65,-59.87 372.24,-55 371.26,-61.93"/>
</g>
<!-- client/pages/Games/Game/GamePage.tsx&#45;&gt;client/config/routes.tsx -->
<g id="edge12" class="edge">
<title>client/pages/Games/Game/GamePage.tsx&#45;&gt;client/config/routes.tsx</title>
<path fill="none" stroke="#757575" d="M387.69,-515.51C338.65,-524.97 251.84,-529.15 193,-489.77 122.49,-442.58 92.73,-336.95 83.2,-289.38"/>
<polygon fill="#757575" stroke="#757575" points="86.7,-289.04 81.43,-279.85 79.82,-290.32 86.7,-289.04"/>
</g>
<!-- client/pages/Games/GameAdd/GameAddPage.tsx&#45;&gt;client/config/routes.tsx -->
<g id="edge13" class="edge">
<title>client/pages/Games/GameAdd/GameAddPage.tsx&#45;&gt;client/config/routes.tsx</title>
<path fill="none" stroke="#757575" d="M383.14,-472.48C333.94,-480.29 251.61,-481.98 193,-446.77 133.12,-410.79 98.55,-329.63 85.52,-289.15"/>
<polygon fill="#757575" stroke="#757575" points="88.9,-288.23 82.66,-279.66 82.2,-290.24 88.9,-288.23"/>
</g>
<!-- client/pages/Games/GamesPage.tsx&#45;&gt;client/config/routes.tsx -->
<g id="edge14" class="edge">
<title>client/pages/Games/GamesPage.tsx&#45;&gt;client/config/routes.tsx</title>
<path fill="none" stroke="#757575" d="M371.24,-429.51C322.12,-434.33 248.86,-432.27 193,-403.77 143.11,-378.31 105.34,-320.79 88.76,-288.4"/>
<polygon fill="#757575" stroke="#757575" points="92.11,-287.3 84.62,-279.82 85.81,-290.34 92.11,-287.3"/>
</g>
<!-- client/pages/Login/LoginPage.tsx&#45;&gt;client/config/routes.tsx -->
<g id="edge15" class="edge">
<title>client/pages/Login/LoginPage.tsx&#45;&gt;client/config/routes.tsx</title>
<path fill="none" stroke="#757575" d="M312.66,-383.99C273.69,-381.93 230.42,-375.34 193,-360.77 152.51,-344.99 114.11,-310.33 94.02,-287.25"/>
<polygon fill="#757575" stroke="#757575" points="96.81,-285.13 87.76,-279.62 91.4,-289.57 96.81,-285.13"/>
</g>
<!-- client/pages/MySaves/MySave/MySavePage.tsx&#45;&gt;client/config/routes.tsx -->
<g id="edge16" class="edge">
<title>client/pages/MySaves/MySave/MySavePage.tsx&#45;&gt;client/config/routes.tsx</title>
<path fill="none" stroke="#757575" d="M266.84,-330.37C241.95,-327.39 216.64,-323.26 193,-317.77 161.11,-310.36 126.11,-296.1 103.53,-284.03"/>
<polygon fill="#757575" stroke="#757575" points="105.54,-281.14 95.12,-279.24 102.08,-287.22 105.54,-281.14"/>
</g>
<!-- client/pages/MySaves/MySavesWidget/MySavesWidget.tsx -->
<g id="node13" class="node">
<title>client/pages/MySaves/MySavesWidget/MySavesWidget.tsx</title>
<path fill="none" stroke="#ff6c60" d="M1077.08,-172.02C1077.08,-172.02 703.17,-172.02 703.17,-172.02 699.08,-172.02 695,-167.94 695,-163.85 695,-163.85 695,-155.69 695,-155.69 695,-151.6 699.08,-147.52 703.17,-147.52 703.17,-147.52 1077.08,-147.52 1077.08,-147.52 1081.17,-147.52 1085.25,-151.6 1085.25,-155.69 1085.25,-155.69 1085.25,-163.85 1085.25,-163.85 1085.25,-167.94 1081.17,-172.02 1077.08,-172.02"/>
<text text-anchor="middle" x="890.12" y="-154.72" font-family="Arial" font-size="14.00" fill="#ff6c60">client/pages/MySaves/MySavesWidget/MySavesWidget.tsx</text>
</g>
<!-- client/pages/MySaves/MySavesPage.tsx&#45;&gt;client/pages/MySaves/MySavesWidget/MySavesWidget.tsx -->
<g id="edge17" class="edge">
<title>client/pages/MySaves/MySavesPage.tsx&#45;&gt;client/pages/MySaves/MySavesWidget/MySavesWidget.tsx</title>
<path fill="none" stroke="#757575" d="M561.79,-282.71C594.02,-279.39 628.04,-274.11 659,-265.77 734.14,-245.53 815.33,-202.64 858.32,-178.07"/>
<polygon fill="#757575" stroke="#757575" points="859.93,-181.18 866.84,-173.15 856.43,-175.12 859.93,-181.18"/>
</g>
<!-- client/pages/PublicSaves/PublicSavesPage.tsx&#45;&gt;client/config/routes.tsx -->
<g id="edge19" class="edge">
<title>client/pages/PublicSaves/PublicSavesPage.tsx&#45;&gt;client/config/routes.tsx</title>
<path fill="none" stroke="#757575" d="M318.83,-257.51C270.81,-261.13 214.7,-264.44 168.88,-266.33"/>
<polygon fill="#757575" stroke="#757575" points="168.84,-262.83 158.98,-266.72 169.11,-269.83 168.84,-262.83"/>
</g>
<!-- client/pages/Register/RegisterPage.tsx&#45;&gt;client/config/routes.tsx -->
<g id="edge20" class="edge">
<title>client/pages/Register/RegisterPage.tsx&#45;&gt;client/config/routes.tsx</title>
<path fill="none" stroke="#757575" d="M318.11,-214.5C278.46,-218.2 233.33,-223.56 193,-232.77 174.85,-236.91 155.67,-243.22 138.34,-249.32"/>
<polygon fill="#757575" stroke="#757575" points="137.49,-245.91 129.24,-252.57 139.84,-252.5 137.49,-245.91"/>
</g>
<!-- client/pages/RequestResetPassword/RequestPasswordResetPage.tsx&#45;&gt;client/config/routes.tsx -->
<g id="edge21" class="edge">
<title>client/pages/RequestResetPassword/RequestPasswordResetPage.tsx&#45;&gt;client/config/routes.tsx</title>
<path fill="none" stroke="#757575" d="M263.23,-171.51C239.18,-175.46 215.08,-181.24 193,-189.77 159.85,-202.58 127.99,-227.97 106.51,-246.07"/>
<polygon fill="#757575" stroke="#757575" points="104.48,-243.2 99.12,-252.34 109.01,-248.54 104.48,-243.2"/>
</g>
<!-- client/pages/ResetPassword/ResetPasswordPage.tsx&#45;&gt;client/config/routes.tsx -->
<g id="edge22" class="edge">
<title>client/pages/ResetPassword/ResetPasswordPage.tsx&#45;&gt;client/config/routes.tsx</title>
<path fill="none" stroke="#757575" d="M246.58,-127.76C227.91,-132.16 209.68,-138.29 193,-146.77 149.37,-168.93 114.89,-215.59 95.85,-243.63"/>
<polygon fill="#757575" stroke="#757575" points="93.04,-241.52 90.39,-251.78 98.86,-245.42 93.04,-241.52"/>
</g>
<!-- client/pages/SharedSaves/SharedSavesPage.tsx&#45;&gt;client/config/routes.tsx -->
<g id="edge23" class="edge">
<title>client/pages/SharedSaves/SharedSavesPage.tsx&#45;&gt;client/config/routes.tsx</title>
<path fill="none" stroke="#757575" d="M262.49,-78.54C238.03,-83.33 214,-91.19 193,-103.77 138.66,-136.32 105.06,-206.11 89.6,-242.72"/>
<polygon fill="#757575" stroke="#757575" points="86.37,-241.38 85.79,-251.95 92.84,-244.05 86.37,-241.38"/>
</g>
<!-- client/pages/MySaves/MySavesWidget/MySavesWidget.tsx&#45;&gt;client/config/routes.tsx -->
<g id="edge18" class="edge">
<title>client/pages/MySaves/MySavesWidget/MySavesWidget.tsx&#45;&gt;client/config/routes.tsx</title>
<path fill="none" stroke="#757575" d="M867.86,-147.15C778.29,-95.81 425.65,88.19 193,-51.77 122.87,-93.96 93.77,-195.67 83.85,-242.03"/>
<polygon fill="#757575" stroke="#757575" points="80.47,-241.07 81.93,-251.57 87.34,-242.45 80.47,-241.07"/>
</g>
</g>
</svg>
